<?xml version="1.0" standalone="no"?>
<!DOCTYPE svg PUBLIC "-//W3C//DTD SVG 20010904//EN"
 "http://www.w3.org/TR/2001/REC-SVG-20010904/DTD/svg10.dtd">
<svg version="1.0" xmlns="http://www.w3.org/2000/svg"
 width="1000.000000pt" height="1000.000000pt" viewBox="0 0 1000.000000 1000.000000"
 preserveAspectRatio="xMidYMid meet">
<metadata>
Created by potrace 1.16, written by Peter Selinger 2001-2019
</metadata>
<g transform="translate(0.000000,1000.000000) scale(0.100000,-0.100000)"
fill="#000000" stroke="none">
<path d="M4784 6147 c-7 -7 -39 -34 -72 -62 -34 -27 -61 -55 -61 -62 -1 -17
-36 -25 -74 -19 -17 3 -25 3 -17 0 8 -4 22 -13 31 -20 14 -13 10 -20 -40 -73
-31 -32 -61 -67 -67 -77 -11 -18 -13 -18 -42 -1 -34 19 -42 21 -42 9 0 -5 11
-14 25 -20 39 -18 27 -50 -25 -67 -22 -7 -23 -9 -6 -15 17 -6 16 -8 -8 -23
-14 -10 -26 -24 -26 -32 0 -9 -6 -12 -17 -8 -12 5 -15 2 -11 -8 9 -22 -29 -44
-48 -28 -8 7 -14 7 -14 1 0 -5 7 -12 15 -16 8 -3 15 -10 15 -16 0 -5 -7 -10
-15 -10 -8 0 -15 -7 -15 -15 0 -10 -8 -15 -22 -14 -50 4 -98 -2 -98 -12 0 -7
16 -9 50 -4 54 7 65 -3 27 -27 -15 -11 -29 -13 -46 -6 -21 7 -22 6 -11 -7 18
-22 53 -18 78 8 12 13 22 27 22 31 0 4 11 20 24 34 13 15 68 79 123 142 54 63
103 120 108 126 6 6 28 32 50 59 22 27 84 93 139 147 54 54 94 98 90 98 -5 -1
-14 -6 -20 -13z"/>
<path d="M1322 5716 c-5 -24 -10 -81 -11 -127 -1 -45 -4 -86 -6 -89 -2 -3 -18
-89 -34 -191 -17 -101 -40 -218 -52 -259 -58 -207 -79 -347 -80 -525 0 -149
-1 -153 -25 -174 -24 -21 -34 -71 -14 -71 6 0 10 8 10 18 0 10 6 26 13 36 11
16 17 16 77 2 77 -18 493 -49 960 -71 184 -9 344 -18 355 -20 29 -6 1426 -7
1432 -1 3 2 -11 8 -31 12 -31 5 -36 9 -31 28 5 15 4 17 -3 7 -8 -11 -15 -9
-41 10 -17 12 -31 26 -31 31 0 4 -4 8 -10 8 -23 0 -8 -33 20 -43 16 -6 32 -17
34 -24 8 -21 -42 -16 -66 7 -24 22 -38 26 -38 10 0 -6 10 -15 23 -20 15 -7
-32 -9 -144 -6 -91 1 -171 6 -177 10 -7 4 -17 4 -24 0 -6 -4 -48 -8 -92 -8
-61 -1 -84 3 -93 14 -11 13 -12 13 -13 -2 0 -14 -18 -16 -175 -15 -110 1 -175
6 -175 12 0 7 -3 7 -8 0 -10 -14 -153 -17 -170 -3 -8 7 -16 8 -20 2 -8 -11
-87 -12 -98 -2 -4 4 -13 3 -21 -4 -9 -7 -17 -8 -24 -1 -6 6 -42 8 -85 6 -70
-4 -75 -3 -83 19 -8 19 -10 20 -10 4 -1 -18 -8 -18 -153 -12 -84 4 -155 9
-159 11 -3 3 -56 5 -118 6 -95 1 -111 3 -112 18 0 10 -2 11 -6 4 -3 -9 -26
-13 -64 -13 -47 0 -59 3 -59 16 0 8 -5 12 -10 9 -6 -4 -8 -11 -5 -16 4 -5 -1
-9 -9 -9 -8 0 -20 9 -26 20 -6 11 -16 20 -22 20 -7 0 -6 -5 2 -15 11 -13 8
-15 -13 -15 -14 0 -31 8 -37 18 -10 15 -11 15 -6 0 4 -15 -4 -16 -77 -12 -116
7 -309 32 -319 42 -5 5 -9 40 -10 78 -1 82 11 304 17 314 2 4 6 23 9 43 6 52
16 77 29 77 8 0 8 3 -1 9 -10 6 -10 16 2 52 8 24 17 59 21 77 4 18 11 29 17
26 7 -4 8 5 3 27 -4 25 -3 30 4 19 10 -13 11 -13 12 0 2 20 2 22 -7 43 -5 13
-3 18 7 15 8 -2 26 6 40 17 31 24 33 68 3 74 -15 3 -16 1 -6 -12 11 -12 8 -20
-13 -43 -14 -15 -27 -25 -29 -23 -2 2 2 29 9 59 7 30 14 49 14 43 1 -7 6 -13
12 -13 7 0 8 7 4 18 -16 38 -18 55 -7 48 7 -4 12 -3 12 3 0 5 -4 11 -9 13 -4
2 -2 32 6 68 8 36 14 75 15 88 0 13 7 22 17 22 11 0 12 3 4 8 -11 7 -14 81 -3
92 10 10 30 50 30 60 0 5 -4 10 -10 10 -5 0 -10 -10 -10 -22 0 -15 -3 -19 -10
-12 -11 11 6 74 23 85 12 9 0 29 -18 29 -8 0 -17 -18 -23 -44z"/>
<path d="M2543 5053 c3 -5 25 -16 49 -23 24 -8 60 -24 80 -37 21 -13 44 -23
52 -23 8 0 31 -9 53 -19 21 -10 79 -38 128 -61 152 -72 232 -113 410 -209 17
-9 67 -38 113 -66 110 -66 134 -78 154 -80 9 -1 25 -11 35 -22 10 -12 34 -30
53 -40 64 -35 140 -86 140 -94 0 -5 6 -9 13 -9 19 -1 121 -84 132 -108 9 -21
16 -22 110 -22 260 0 1040 -20 1595 -41 550 -21 1413 1 1810 46 776 87 1030
122 1265 171 209 45 445 111 445 125 0 5 -31 39 -68 76 -55 55 -91 79 -183
126 -118 59 -146 65 -232 50 -60 -9 -23 -21 56 -17 53 3 68 1 60 -7 -7 -7 -22
-13 -35 -15 -13 -1 -48 -8 -78 -14 -30 -7 -75 -16 -100 -21 -44 -9 -209 -23
-420 -34 -58 -4 -111 -8 -118 -11 -24 -7 -363 -19 -547 -18 -668 2 -2098 14
-2135 18 -25 3 -83 8 -130 12 -112 8 -129 10 -235 24 -121 17 -130 18 -130 20
0 2 -10 4 -21 5 -112 12 -149 18 -171 26 -14 5 -44 12 -66 15 -22 2 -59 9 -81
15 -23 5 -63 11 -91 13 -27 2 -75 10 -105 19 -81 23 -154 38 -198 42 -22 1
-44 5 -48 7 -8 5 -77 20 -99 22 -5 1 -20 7 -31 13 -12 7 -24 10 -27 7 -3 -3
-16 2 -30 11 -16 10 -28 12 -31 6 -4 -5 2 -15 11 -21 17 -11 17 -11 1 -6 -10
3 -18 1 -18 -4 0 -6 -7 -10 -15 -10 -8 0 -15 -4 -15 -10 0 -5 7 -10 15 -10 8
0 15 4 15 9 0 10 76 9 86 -2 4 -4 18 -7 31 -7 14 0 23 -6 23 -15 0 -17 16 -20
25 -5 8 14 46 2 61 -18 8 -11 13 -12 18 -4 10 16 59 16 53 0 -2 -7 -11 -13
-20 -13 -8 0 -19 -4 -24 -9 -4 -5 7 -6 27 -2 18 3 37 10 40 15 3 6 29 5 64 -2
69 -14 88 -37 31 -37 -32 0 -36 2 -25 15 10 12 10 15 -4 15 -9 0 -16 -5 -16
-11 0 -6 -6 -9 -13 -6 -7 2 -30 1 -52 -3 -33 -6 -35 -8 -12 -9 20 -1 31 -7 34
-21 3 -11 10 -17 15 -14 5 3 7 12 4 20 -6 16 10 19 19 4 4 -6 14 -9 23 -8 10
2 17 -4 17 -12 0 -10 -8 -14 -22 -12 -12 2 -25 -2 -29 -9 -5 -9 3 -11 32 -6
34 6 41 3 60 -21 12 -15 25 -24 29 -20 10 10 -14 48 -30 48 -8 0 -15 5 -15 10
0 6 12 10 28 10 15 0 34 5 42 11 11 8 5 9 -25 4 -39 -7 -40 -6 -20 12 22 22
75 19 75 -3 0 -8 5 -14 10 -14 6 0 10 5 10 11 0 6 12 9 28 7 15 -2 25 -7 22
-13 -3 -5 -13 -9 -22 -8 -10 2 -18 -2 -18 -8 0 -13 63 -4 68 9 1 4 18 6 36 4
25 -3 33 -8 29 -18 -6 -16 13 -19 22 -4 3 6 20 10 37 10 26 0 29 -2 18 -15
-12 -14 -8 -15 28 -9 29 4 42 3 42 -5 0 -8 13 -9 40 -5 28 5 40 3 40 -6 0 -8
9 -10 28 -6 18 4 34 1 47 -9 19 -15 18 -16 -17 -10 -24 4 -38 2 -38 -5 0 -5 6
-10 14 -10 8 0 17 -6 20 -12 4 -10 8 -10 11 -2 3 7 16 9 27 6 17 -4 20 -2 15
11 -5 14 0 17 24 17 20 0 29 -4 26 -12 -2 -7 -11 -12 -20 -10 -11 2 -15 -2
-11 -13 5 -12 -2 -15 -31 -15 -32 0 -36 -2 -25 -15 13 -16 40 -21 40 -7 0 4
14 15 30 24 32 18 59 14 74 -10 7 -12 10 -12 17 -1 11 19 2 29 -27 29 -14 0
-22 4 -19 10 8 14 55 13 55 -1 0 -7 7 -8 18 -4 24 11 54 8 62 -6 5 -7 10 -8
14 -1 7 12 48 4 58 -12 5 -8 11 -7 20 2 13 13 50 16 62 5 4 -4 23 -6 43 -4 22
2 39 -2 44 -11 6 -9 12 -10 17 -3 12 18 62 17 62 -1 0 -8 -6 -14 -12 -13 -26
3 -39 -1 -33 -12 4 -6 13 -8 21 -5 8 3 11 0 7 -10 -3 -7 -14 -14 -24 -14 -11
0 -19 -7 -19 -16 0 -14 4 -13 33 3 17 11 33 26 33 34 1 8 3 19 4 24 1 6 2 13
1 17 -1 10 61 -2 77 -15 8 -6 12 -6 12 2 0 6 14 11 30 11 17 0 30 -5 30 -11 0
-8 4 -8 14 0 11 9 16 9 22 0 4 -7 2 -15 -4 -17 -7 -2 -12 -8 -12 -14 0 -5 9
-6 20 -3 11 4 20 2 20 -4 0 -6 5 -11 10 -11 20 0 10 38 -12 44 -18 4 -20 8
-11 17 9 9 16 9 26 1 8 -7 29 -9 51 -5 27 4 41 2 48 -8 7 -11 11 -11 15 -1 6
16 60 16 67 0 5 -10 7 -10 12 0 7 16 56 16 73 0 11 -10 14 -10 18 0 3 6 18 12
35 12 19 0 28 -4 25 -12 -2 -7 -16 -12 -30 -10 -14 1 -28 -2 -32 -8 -4 -6 4
-10 19 -10 13 0 26 -6 29 -12 3 -10 7 -10 18 -2 17 14 137 16 145 2 8 -12 34
10 34 28 0 8 6 14 14 14 8 0 21 3 30 6 11 4 16 1 16 -11 0 -12 -5 -15 -19 -10
-11 3 -22 1 -26 -5 -3 -5 2 -10 12 -10 11 0 24 -5 30 -11 8 -8 13 -8 17 0 9
15 49 14 64 -1 9 -9 12 -8 12 5 0 16 -15 21 -52 18 -10 -1 -18 4 -18 11 0 11
17 14 68 13 37 0 72 -4 79 -8 6 -4 14 -3 18 3 9 14 48 13 63 -2 9 -9 15 -9 20
-2 10 14 55 15 64 1 6 -9 10 -9 16 0 4 7 30 11 62 11 30 -1 61 1 69 3 7 2 15
-1 18 -8 3 -7 -7 -11 -27 -11 -16 1 -33 -2 -37 -5 -3 -4 7 -7 23 -7 17 0 36
-6 43 -12 10 -11 12 -9 9 6 -4 26 46 56 63 39 6 -6 8 -17 4 -23 -6 -9 -10 -9
-16 1 -6 10 -11 11 -18 4 -7 -7 -1 -14 19 -22 27 -10 30 -9 31 10 0 12 3 16 6
10 2 -7 15 -13 27 -13 12 0 28 -6 35 -12 11 -10 14 -10 18 0 6 15 45 16 59 2
8 -8 19 -7 37 1 21 9 30 9 41 0 11 -9 20 -10 35 -1 15 8 27 8 41 0 11 -6 25
-8 31 -5 21 14 59 12 59 -1 0 -8 7 -14 15 -14 8 0 15 -4 15 -10 0 -13 37 -13
45 1 4 6 13 8 21 5 8 -3 14 1 14 9 0 22 14 25 43 10 15 -7 29 -10 32 -5 9 15
-35 32 -63 24 -15 -4 -31 -6 -37 -4 -5 2 -82 5 -170 6 -182 4 -174 3 -238 11
-27 3 -45 9 -40 13 4 5 37 5 73 2 36 -4 118 -6 183 -6 64 1 117 -2 117 -7 0
-4 14 -3 31 3 21 7 34 7 41 0 7 -7 19 -7 39 0 21 7 33 7 43 -1 9 -8 22 -8 39
-2 17 7 28 7 32 1 4 -6 24 -7 46 -4 26 5 39 3 39 -5 0 -9 5 -9 21 0 12 6 35 9
53 6 17 -2 39 0 49 5 12 6 23 6 32 -2 8 -7 20 -8 27 -3 7 4 45 9 83 10 140 5
220 11 237 18 10 4 24 5 30 2 7 -2 42 -1 78 4 36 4 71 4 79 -1 15 -8 -114 -27
-161 -23 -15 2 -29 -1 -32 -6 -9 -13 55 -23 70 -10 7 6 22 8 33 4 11 -3 29 0
40 7 16 9 23 10 32 1 9 -9 18 -8 37 5 23 15 25 15 37 -1 6 -9 15 -14 18 -10
14 13 6 22 -24 28 -48 11 -27 17 63 20 75 1 80 0 53 -11 -17 -7 -35 -8 -40 -4
-6 5 -17 5 -25 0 -13 -8 -12 -10 3 -10 10 0 20 -7 23 -15 8 -19 24 -20 24 -1
0 16 27 29 41 20 5 -3 9 -12 9 -20 0 -8 5 -14 10 -14 6 0 10 6 10 14 0 19 17
29 32 20 8 -5 7 -10 -4 -18 -14 -10 -14 -14 -1 -31 10 -13 14 -15 12 -5 -2 8
3 26 10 39 11 20 11 25 0 32 -9 6 -10 9 -2 9 6 0 20 3 30 6 15 5 15 4 3 -5
-13 -9 -13 -11 2 -11 9 0 18 -6 20 -12 3 -9 10 -7 23 6 19 18 19 18 -3 12 -13
-4 -22 -3 -22 3 0 11 15 16 73 26 23 4 37 2 37 -5 0 -5 -8 -10 -17 -10 -16 -1
-16 -2 1 -11 14 -9 20 -8 26 1 4 7 16 9 29 5 12 -4 21 -2 21 4 0 17 27 13 34
-4 3 -10 -1 -15 -12 -15 -9 0 -24 -5 -32 -11 -11 -8 -7 -9 18 -4 25 5 32 3 32
-9 0 -9 5 -16 10 -16 13 0 13 37 0 45 -10 6 -2 35 10 35 4 0 10 -13 14 -30 3
-16 10 -30 16 -30 14 0 13 23 -2 39 -11 10 -9 15 6 27 25 17 15 29 -12 15 -25
-13 -42 -14 -42 -2 0 5 13 14 30 19 23 9 33 8 45 -4 8 -8 19 -13 25 -9 14 9
139 -60 193 -106 36 -31 45 -45 43 -66 -4 -33 -34 -46 -58 -25 -12 9 -18 11
-18 4 0 -7 5 -12 11 -12 5 0 7 -4 4 -10 -3 -5 -18 -10 -33 -10 -15 0 -38 -6
-52 -13 -14 -8 -55 -19 -90 -26 -36 -7 -72 -14 -80 -16 -133 -28 -391 -75
-412 -75 -4 0 -8 8 -9 18 0 14 -2 14 -9 -3 -7 -18 -23 -23 -116 -34 -60 -7
-143 -17 -184 -22 -41 -5 -115 -14 -165 -19 -49 -5 -130 -15 -179 -20 -71 -8
-91 -8 -98 2 -6 10 -8 9 -8 -4 0 -13 -14 -17 -77 -22 -43 -3 -118 -10 -168
-16 -49 -5 -97 -9 -105 -9 -8 0 -67 -4 -130 -10 -298 -26 -1446 -34 -1461 -10
-4 7 -9 7 -13 1 -3 -5 -17 -8 -30 -7 -14 2 -145 6 -292 9 -170 4 -272 11 -281
18 -9 7 -13 7 -13 -1 0 -6 -4 -11 -10 -11 -11 0 -14 33 -3 44 10 9 13 37 3 31
-4 -2 -15 4 -25 15 -10 11 -23 20 -29 20 -6 0 2 -11 17 -24 22 -19 27 -29 21
-51 l-6 -26 -302 4 c-224 3 -300 6 -298 15 1 7 -2 12 -8 12 -5 0 -10 -4 -10
-10 0 -6 -46 -10 -118 -10 -94 0 -122 3 -142 17 -24 16 -24 16 -11 0 13 -17
10 -18 -55 -16 -78 3 -100 10 -109 39 -4 11 -11 18 -16 15 -5 -4 -17 1 -26 10
-14 14 -14 18 -2 27 10 7 8 8 -8 3 -17 -5 -34 3 -65 27 -24 18 -45 36 -48 39
-3 3 -13 8 -23 12 -10 4 -15 11 -12 17 3 5 -1 10 -10 10 -14 0 -53 18 -65 30
-3 3 -18 12 -34 20 -16 8 -28 19 -25 24 2 4 -21 18 -51 30 -86 33 -99 43 -93
68 4 21 3 22 -10 6 -12 -15 -18 -16 -40 -5 -28 13 -40 39 -26 56 5 6 1 5 -8
-3 -17 -16 -9 -19 -291 130 -13 6 -24 15 -25 20 -1 4 -12 9 -23 10 -12 1 -42
13 -66 26 -32 17 -43 28 -40 43 3 19 2 19 -12 2 -13 -17 -16 -17 -46 -2 -24
13 -30 21 -26 38 3 12 3 16 0 10 -7 -17 -67 -17 -62 -1 3 7 24 13 49 15 24 1
54 5 67 8 19 5 23 2 20 -12 -2 -10 -10 -18 -18 -19 -41 -3 -44 -4 -33 -15 5
-5 22 -7 37 -3 15 3 25 9 22 11 -9 9 18 29 47 37 20 5 27 3 27 -9 0 -9 -9 -15
-24 -15 -13 0 -26 -7 -30 -15 -7 -20 9 -19 45 2 18 11 27 23 24 31 -4 11 1 13
20 8 33 -9 50 1 34 20 -9 11 -7 14 12 15 13 1 4 5 -20 10 -24 5 -51 5 -60 0
-9 -5 -47 -8 -85 -7 -44 1 -74 -3 -82 -11 -15 -15 -28 -17 -19 -3 3 6 -1 10
-9 10 -9 0 -16 -7 -16 -15 0 -12 -13 -15 -57 -15 -65 0 -68 8 -5 12 23 2 41 7
40 12 -4 12 -86 8 -110 -5 -13 -7 -18 -6 -18 5 0 9 -17 18 -42 24 -24 6 -54
14 -67 18 -15 4 -22 3 -18 -3z"/>
<path d="M3134 5016 c-18 -19 -27 -56 -15 -56 6 0 11 5 11 10 0 15 57 12 64
-2 5 -10 7 -10 12 0 3 6 19 12 35 12 21 0 27 -4 23 -15 -4 -8 -10 -12 -15 -9
-5 3 -18 -1 -29 -9 -21 -14 -21 -15 -1 -20 12 -3 21 1 23 9 3 12 8 11 32 -1
31 -16 62 -13 51 5 -3 5 1 10 9 10 9 0 16 5 16 10 0 6 13 10 30 10 22 0 28 -4
24 -15 -4 -8 -2 -15 4 -15 6 0 12 4 14 8 2 5 15 12 30 16 22 5 26 3 22 -9 -4
-8 -15 -15 -25 -15 -20 0 -26 -15 -9 -25 11 -7 50 16 50 30 0 5 19 10 42 11
23 0 36 -2 30 -4 -7 -2 -12 -11 -12 -19 0 -11 -7 -14 -23 -9 -16 4 -27 -1 -37
-14 -8 -11 -22 -20 -32 -20 -10 0 -18 -4 -18 -9 0 -13 43 -1 56 16 7 7 16 13
20 11 15 -4 54 13 54 23 0 5 9 9 21 9 18 0 19 2 6 15 -9 8 -17 20 -19 26 -4
11 -32 13 -143 8 -22 -1 -69 1 -105 4 -36 3 -75 6 -87 6 -13 1 -23 7 -23 16 0
8 -5 15 -11 15 -6 0 -9 -6 -6 -14 9 -23 -5 -27 -20 -6 -16 23 -33 25 -49 6z"/>
<path d="M1089 4243 c-5 -13 -9 -29 -9 -34 0 -5 -7 -12 -15 -15 -8 -4 -15 -11
-15 -18 0 -6 -10 -30 -22 -51 -22 -39 -23 -48 -21 -313 0 -150 4 -289 8 -308
5 -28 13 -39 40 -50 19 -8 47 -14 62 -13 23 0 20 3 -18 15 -31 9 -49 22 -57
39 -16 35 -25 515 -11 578 6 26 15 47 20 47 5 0 9 6 9 14 0 8 7 27 14 43 8 15
18 36 21 47 5 18 15 19 73 1 15 -5 22 -3 22 7 0 8 -18 18 -46 24 -44 10 -46
10 -55 -13z"/>
<path d="M8770 4168 c197 -95 242 -118 305 -159 85 -56 205 -152 264 -213 l44
-45 -62 -30 -62 -30 -83 64 c-107 83 -328 221 -441 277 -219 108 -260 126
-269 121 -8 -6 164 -93 183 -93 8 0 146 -77 319 -178 31 -19 80 -50 107 -71
28 -20 77 -57 109 -81 l59 -43 -59 -20 -59 -19 -110 71 c-60 39 -117 74 -125
78 -8 4 -38 21 -66 39 -28 18 -68 42 -90 55 -21 12 -66 37 -99 56 -33 19 -94
50 -135 69 -41 20 -110 53 -152 74 -43 21 -80 34 -83 30 -3 -5 12 -16 32 -26
83 -37 341 -166 388 -194 28 -17 57 -33 65 -37 8 -4 17 -10 20 -13 3 -4 25
-17 50 -30 25 -12 59 -33 77 -46 17 -13 34 -24 38 -24 3 0 39 -22 81 -50 41
-27 80 -50 85 -50 26 0 -6 -19 -41 -25 -36 -6 -48 -2 -128 47 -148 92 -193
118 -203 118 -5 0 -9 3 -9 8 0 4 -19 16 -43 27 -23 11 -69 36 -102 56 -57 34
-157 86 -346 179 -48 23 -95 40 -105 38 -15 -4 -13 -7 9 -13 27 -7 244 -115
370 -184 31 -17 81 -44 110 -60 28 -15 112 -64 185 -107 73 -43 149 -87 169
-97 41 -21 35 -35 -18 -43 -35 -6 -35 -5 -249 119 -19 11 -62 35 -95 52 -62
32 -112 60 -225 125 -112 65 -399 202 -412 197 -7 -2 10 -14 37 -26 28 -13
102 -49 166 -81 107 -53 150 -76 277 -146 23 -13 61 -35 85 -48 23 -13 65 -36
92 -51 28 -15 68 -38 90 -50 22 -12 58 -32 80 -45 22 -13 52 -30 68 -37 15 -8
27 -18 27 -22 0 -5 -34 -14 -75 -20 l-75 -13 -78 40 c-114 58 -166 86 -172 92
-3 3 -30 18 -60 34 -51 26 -101 53 -161 87 -13 8 -26 16 -29 19 -3 3 -21 13
-40 22 -19 10 -71 38 -115 63 -44 25 -91 50 -105 55 -14 6 -64 31 -113 55 -48
25 -98 45 -110 44 -14 0 0 -11 43 -31 124 -59 225 -110 305 -154 44 -24 87
-47 95 -51 8 -3 31 -17 51 -29 20 -13 40 -20 43 -17 3 4 6 1 6 -4 0 -6 21 -22
48 -35 26 -13 72 -38 102 -55 30 -17 104 -56 163 -87 69 -36 102 -58 92 -62
-8 -3 -22 -4 -30 -1 -8 4 -17 2 -20 -3 -4 -6 -15 -10 -25 -10 -20 0 -360 170
-380 190 -6 6 -30 20 -118 67 -37 19 -71 39 -77 43 -47 37 -442 233 -458 227
-6 -2 33 -25 88 -51 103 -49 174 -85 235 -119 19 -11 64 -36 100 -55 36 -19
76 -42 90 -51 14 -9 39 -23 55 -31 17 -8 32 -17 35 -20 3 -3 25 -16 50 -29 25
-13 74 -39 110 -59 102 -55 178 -92 189 -92 6 0 11 -4 11 -10 0 -5 8 -10 17
-10 21 0 6 -17 -22 -23 -11 -2 3 -3 30 0 58 5 279 49 345 68 233 69 367 118
428 155 l43 26 -68 70 c-139 141 -250 219 -448 313 -60 28 -118 56 -127 61
-10 6 -26 10 -35 10 -10 -1 11 -15 47 -32z"/>
<path d="M1650 4174 c0 -9 20 -13 73 -13 39 0 101 -2 137 -5 36 -3 117 -8 180
-11 63 -3 180 -10 260 -16 79 -6 166 -8 193 -5 27 4 47 3 44 -1 -3 -4 12 -7
34 -7 63 2 69 3 69 15 0 7 -18 9 -49 6 -27 -3 -52 -2 -55 1 -4 3 -52 7 -109 8
-105 1 -263 10 -353 20 -48 5 -195 12 -356 19 -50 1 -68 -1 -68 -11z"/>
<path d="M2720 4129 c-19 -4 -43 -6 -52 -3 -10 3 -18 1 -18 -3 0 -9 359 -12
1490 -16 69 -1 158 -1 197 -1 40 -1 74 3 75 9 3 8 -189 19 -317 18 -295 -3
-615 -3 -905 0 -246 2 -357 0 -362 -7 -5 -7 -8 -7 -8 2 0 14 -46 15 -100 1z"/>
<path d="M5130 4106 c0 -13 12 -16 58 -18 31 0 80 -2 107 -3 28 -2 151 -6 275
-9 124 -4 287 -9 363 -12 113 -4 137 -3 131 8 -6 10 -4 10 9 -1 14 -11 73 -12
340 -7 177 4 359 7 404 7 45 -1 92 3 105 8 20 8 17 10 -19 10 -25 1 -43 6 -43
12 0 6 -7 8 -16 5 -62 -24 -929 -25 -1284 -2 -50 3 -56 2 -25 -4 24 -5 -2 -6
-65 -3 -58 3 -106 10 -108 14 -5 13 -52 11 -52 -2 0 -6 9 -8 20 -4 11 4 20 2
20 -4 0 -13 -32 -14 -45 -2 -6 5 -47 12 -92 16 -72 6 -83 5 -83 -9z"/>
<path d="M8035 4090 c3 -5 12 -10 18 -10 12 0 259 -122 360 -178 31 -18 83
-46 115 -63 108 -60 137 -76 276 -158 77 -44 141 -79 144 -76 6 6 9 4 -53 42
-47 30 -69 42 -175 101 -25 14 -74 42 -110 62 -36 21 -90 52 -120 69 -88 51
-434 221 -448 221 -7 0 -10 -4 -7 -10z"/>
<path d="M7820 4060 c0 -5 5 -10 11 -10 26 0 324 -147 363 -179 9 -8 16 -10
16 -6 0 4 6 3 13 -3 7 -6 37 -24 67 -40 30 -16 73 -39 95 -52 22 -12 63 -35
90 -50 28 -15 68 -38 90 -50 91 -52 162 -88 185 -95 44 -13 10 10 -100 67 -58
30 -122 65 -142 77 -99 56 -116 65 -153 86 -22 12 -65 35 -95 52 -30 16 -73
41 -95 54 -22 14 -65 36 -95 49 -30 14 -92 44 -138 67 -84 43 -112 51 -112 33z"/>
<path d="M1740 4011 c0 -6 13 -11 28 -11 16 0 125 -7 243 -15 396 -27 670 -34
1439 -40 421 -3 803 -8 850 -10 47 -2 234 -7 415 -10 182 -3 490 -13 685 -22
198 -9 606 -17 923 -18 312 -1 570 -5 574 -8 3 -3 5 -25 5 -49 -2 -70 11 -91
19 -33 7 46 3 68 -29 165 -3 10 -8 4 -13 -16 l-9 -30 -202 -12 c-112 -7 -250
-10 -308 -7 -58 2 -231 7 -385 10 -154 3 -323 8 -375 10 -252 13 -648 25 -965
30 -192 3 -411 8 -485 10 -74 3 -443 7 -820 10 -821 7 -1006 13 -1365 40 -209
16 -225 16 -225 6z"/>
<path d="M6990 3983 c1 -9 241 -127 253 -125 4 1 7 -2 7 -7 0 -5 12 -16 28
-24 15 -7 43 -23 62 -34 19 -11 61 -34 94 -52 32 -18 79 -45 105 -59 25 -15
80 -44 121 -66 41 -21 93 -49 115 -62 22 -13 51 -28 65 -34 14 -5 32 -14 40
-20 8 -5 32 -19 53 -31 42 -22 64 -20 25 3 -53 31 -66 38 -138 75 -41 21 -76
41 -78 46 -2 4 -12 7 -23 7 -10 0 -19 3 -19 8 0 4 -25 18 -55 32 -30 14 -55
28 -55 32 0 3 -12 11 -27 17 -30 11 -55 26 -141 79 -29 17 -55 32 -57 32 -3 0
-39 20 -79 45 -41 25 -78 45 -83 45 -8 0 -38 15 -141 71 -54 30 -72 35 -72 22z"/>
<path d="M4965 3880 c-4 -6 19 -10 62 -11 187 -4 618 -20 643 -25 36 -7 896
-17 890 -11 -3 3 -133 8 -290 11 -391 8 -664 16 -730 21 -30 2 -154 7 -275 10
-121 3 -237 8 -257 10 -20 3 -40 1 -43 -5z"/>
<path d="M1054 3399 c-9 -16 -5 -17 96 -33 269 -42 587 -52 2680 -86 355 -6
881 -18 1170 -27 1070 -34 2698 -21 3385 28 77 5 174 12 215 15 41 2 89 6 105
9 37 6 126 16 143 18 6 0 12 4 12 8 0 10 -119 9 -125 -1 -3 -4 -15 -5 -28 -3
-13 3 -40 0 -60 -5 -23 -7 -39 -6 -45 0 -6 6 -18 7 -29 3 -26 -12 -163 -15
-163 -4 0 5 -4 9 -10 9 -5 0 -6 -7 -3 -17 4 -11 3 -14 -5 -9 -6 4 -32 7 -57 8
-25 0 -45 5 -45 10 0 5 -5 6 -10 3 -6 -4 -8 -11 -5 -16 4 -5 -3 -9 -13 -9 -11
0 -34 -3 -51 -6 -27 -6 -31 -4 -25 12 5 16 4 17 -5 3 -8 -13 -27 -17 -81 -17
-39 0 -84 3 -100 8 -21 6 -27 5 -24 -4 4 -9 -28 -13 -128 -14 -73 0 -133 -1
-133 -2 0 -1 -61 -2 -135 -4 -144 -4 -145 -4 75 29 67 10 92 10 98 1 5 -8 9
-7 16 3 5 7 24 15 42 16 19 2 77 11 129 20 52 9 113 19 135 21 39 5 75 24 44
24 -7 0 -115 -14 -238 -30 -248 -34 -589 -72 -811 -91 -254 -22 -1358 -17
-2205 11 -159 5 -580 14 -935 20 -1931 31 -2084 35 -2414 66 -93 8 -204 21
-245 29 -89 16 -208 18 -217 4z"/>
</g>
</svg>
