<?xml version="1.0" standalone="no"?>
<!DOCTYPE svg PUBLIC "-//W3C//DTD SVG 20010904//EN"
 "http://www.w3.org/TR/2001/REC-SVG-20010904/DTD/svg10.dtd">
<svg version="1.0" xmlns="http://www.w3.org/2000/svg"
 width="1000.000000pt" height="1000.000000pt" viewBox="0 0 1000.000000 1000.000000"
 preserveAspectRatio="xMidYMid meet">
<metadata>
Created by potrace 1.16, written by Peter Selinger 2001-2019
</metadata>
<g transform="translate(0.000000,1000.000000) scale(0.100000,-0.100000)"
fill="#000000" stroke="none">
<path d="M1570 6420 c-22 -5 -19 -7 17 -13 43 -7 162 -82 258 -162 28 -23 93
-71 145 -107 52 -36 120 -92 151 -125 118 -122 315 -293 338 -293 18 0 12 19
-10 31 -55 29 -163 124 -405 356 -12 13 -41 32 -62 43 -22 12 -48 30 -57 40
-10 11 -24 20 -32 20 -7 0 -13 5 -13 10 0 6 -28 31 -62 56 -35 25 -72 52 -83
60 -66 49 -158 90 -185 84z"/>
<path d="M1450 6340 c-6 -22 -24 -82 -39 -133 -16 -50 -34 -117 -40 -147 -15
-74 -40 -274 -35 -279 2 -2 14 0 27 6 25 12 29 10 91 -45 21 -18 35 -36 32
-39 -3 -4 -17 4 -31 17 -14 13 -25 20 -25 16 0 -14 55 -54 61 -44 4 6 12 4 20
-4 113 -105 219 -197 238 -207 19 -11 21 -15 10 -23 -11 -8 -11 -9 2 -5 9 3
29 -6 44 -19 15 -13 32 -24 37 -24 4 0 27 -13 50 -30 22 -16 45 -30 50 -30 5
0 39 -20 76 -43 113 -73 172 -104 172 -89 0 4 -44 33 -98 65 -54 31 -106 65
-114 74 -23 26 -38 89 -38 159 0 53 7 74 50 162 38 80 54 102 70 102 28 0 25
19 -6 30 -67 26 -247 187 -328 294 -30 39 -63 78 -75 86 -12 8 -21 18 -21 21
0 4 -12 21 -27 37 -58 60 -93 106 -93 119 0 7 -11 13 -25 13 -20 0 -26 -7 -35
-40z m53 -18 c4 -17 14 -31 25 -34 22 -6 62 -78 62 -112 0 -29 -15 -41 -58
-51 -18 -3 -30 -10 -27 -15 6 -10 72 15 92 36 10 9 13 24 9 40 -5 17 -3 23 4
19 5 -3 10 -12 10 -20 0 -7 14 -23 30 -35 28 -20 61 -69 60 -87 -1 -5 9 -9 20
-11 17 -3 19 -6 9 -18 -9 -11 -7 -14 15 -14 17 0 25 -4 21 -11 -4 -6 10 -26
31 -45 22 -19 33 -34 25 -34 -8 0 -20 8 -27 18 -7 9 -14 12 -14 5 0 -6 5 -15
10 -18 6 -3 11 -16 11 -28 1 -18 2 -19 6 -4 4 15 11 17 36 11 35 -7 69 -32 62
-44 -3 -4 5 -10 16 -13 12 -3 18 -10 15 -16 -3 -5 0 -16 8 -24 8 -8 12 -17 9
-21 -4 -3 -1 -6 5 -6 6 0 13 -8 15 -17 2 -10 3 -3 1 15 -3 38 12 42 28 7 9
-20 8 -28 -4 -42 -27 -31 -75 -129 -83 -169 -10 -50 -7 -149 6 -181 13 -34 5
-39 -20 -14 -11 11 -33 27 -48 35 -15 8 -43 28 -61 45 -18 17 -39 31 -45 31
-7 0 -42 28 -78 63 -36 34 -88 82 -115 106 -27 24 -75 68 -107 98 -41 40 -63
54 -77 50 -18 -5 -19 -1 -13 42 3 25 9 47 13 49 4 1 5 25 2 52 -5 50 3 61 26
38 6 -6 15 -8 19 -3 5 4 3 10 -4 12 -7 2 -9 12 -6 20 5 12 2 15 -10 10 -9 -3
-17 -2 -17 3 0 6 5 10 10 10 6 0 10 14 10 31 0 17 4 28 10 24 6 -3 10 -2 10 4
0 5 -5 13 -11 17 -7 4 -7 10 -1 16 6 6 9 16 8 22 -2 6 -1 8 1 4 9 -17 25 -7
20 12 -8 32 29 184 43 175 4 -3 10 -18 13 -33z"/>
</g>
</svg>
